<?xml version="1.0" standalone="no"?>
<!DOCTYPE svg PUBLIC "-//W3C//DTD SVG 20010904//EN"
 "http://www.w3.org/TR/2001/REC-SVG-20010904/DTD/svg10.dtd">
<svg version="1.0" xmlns="http://www.w3.org/2000/svg"
 width="1455.000000pt" height="1455.000000pt" viewBox="0 0 1455.000000 1455.000000"
 preserveAspectRatio="xMidYMid meet">
<metadata>
Created by potrace 1.14, written by Peter Selinger 2001-2017
</metadata>
<g transform="translate(0.000000,1455.000000) scale(0.100000,-0.100000)"
fill="#000000" stroke="none">
<path d="M6949 14336 c-2 -2 -62 -7 -134 -10 -71 -4 -143 -9 -160 -10 -16 -2
-61 -6 -100 -10 -289 -27 -655 -89 -955 -160 -365 -87 -844 -244 -1115 -366
-22 -10 -83 -37 -135 -60 -174 -76 -449 -217 -640 -328 -93 -53 -345 -209
-365 -224 -5 -5 -73 -52 -150 -106 -137 -95 -345 -249 -355 -262 -3 -4 -43
-38 -90 -75 -47 -37 -87 -71 -90 -74 -3 -3 -39 -35 -80 -71 -195 -168 -495
-468 -659 -660 -35 -41 -67 -77 -71 -80 -8 -7 -210 -258 -235 -294 -11 -15
-36 -49 -56 -75 -46 -59 -79 -105 -187 -266 -443 -656 -773 -1388 -977 -2165
-49 -188 -107 -470 -141 -685 -2 -16 -6 -41 -9 -55 -3 -14 -7 -47 -10 -75 -3
-27 -8 -68 -11 -90 -11 -76 -12 -90 -19 -165 -3 -41 -8 -93 -10 -115 -15 -147
-20 -303 -19 -610 0 -309 4 -429 19 -580 2 -22 7 -76 10 -119 4 -44 9 -88 11
-99 2 -11 6 -45 9 -76 4 -31 8 -67 11 -81 2 -14 9 -56 14 -95 15 -99 27 -171
56 -320 33 -166 30 -153 42 -200 6 -22 13 -51 16 -65 36 -191 178 -641 293
-935 171 -433 440 -956 663 -1285 147 -218 300 -429 394 -545 53 -64 197 -237
211 -251 5 -6 39 -44 75 -84 88 -100 385 -398 489 -490 46 -41 89 -80 95 -85
50 -46 180 -153 296 -244 36 -28 81 -64 100 -79 112 -90 435 -308 610 -414
377 -226 767 -416 1150 -559 58 -22 114 -44 125 -49 27 -12 385 -126 460 -146
167 -45 408 -103 490 -118 69 -13 92 -18 130 -26 78 -17 301 -51 430 -65 28
-3 61 -8 75 -10 14 -2 57 -7 95 -10 39 -3 90 -8 115 -10 159 -15 273 -19 575
-20 290 0 491 6 620 20 17 1 63 6 102 9 40 4 80 9 90 10 10 2 47 7 83 11 60 6
288 39 336 49 12 2 39 7 60 10 21 4 81 16 134 27 52 11 107 22 121 24 14 3
104 25 200 49 422 107 825 248 1214 426 87 40 388 190 435 217 19 11 78 44
130 73 129 73 339 205 490 308 124 84 456 334 517 389 37 33 65 57 113 97 114
93 462 431 585 567 121 133 257 294 315 369 19 25 37 47 41 50 33 27 358 492
460 658 336 553 594 1132 764 1717 38 133 69 246 81 298 2 9 6 25 8 35 7 30
67 306 72 332 2 14 6 36 9 50 3 13 7 42 10 65 3 22 8 51 10 65 3 14 7 34 9 45
5 25 23 153 31 220 4 28 8 61 10 75 2 14 6 59 10 100 4 41 8 91 10 110 27 284
27 976 1 1185 -2 17 -7 70 -11 118 -3 48 -8 96 -10 106 -2 10 -6 42 -10 72 -3
30 -8 65 -11 79 -2 14 -6 43 -9 65 -2 22 -6 54 -9 70 -19 115 -37 214 -41 235
-3 14 -8 41 -11 60 -4 19 -15 71 -25 115 -10 44 -20 92 -23 107 -13 77 -116
438 -176 618 -56 169 -137 388 -179 485 -102 235 -124 283 -210 455 -144 287
-281 523 -455 780 -66 98 -253 359 -266 370 -3 3 -30 36 -60 75 -64 82 -81
103 -95 119 -6 6 -23 27 -39 46 -197 240 -569 614 -827 831 -141 119 -172 144
-308 248 -540 410 -1172 760 -1781 985 -85 32 -164 62 -175 67 -11 4 -87 29
-170 55 -82 25 -163 50 -180 55 -91 29 -421 110 -549 135 -209 41 -314 59
-471 80 -196 26 -200 26 -375 40 -41 3 -93 8 -115 10 -50 6 -760 15 -766 10z"/>
</g>
</svg>
