<svg id="a3078253-0974-41d7-b0a7-ed1357588f32" data-name="Logos" xmlns="http://www.w3.org/2000/svg" viewBox="0 0 300 300"><defs><style>.b160be89-e625-4efe-a890-8717568e6ef0{fill:#ffd260;}.a7c8664a-2313-4160-bb4d-54c5ce3b7bfb{fill:#3aace0;}.bd29b18c-aacb-4a01-ad86-d72307986bf1{fill:#e75c68;}.a81a12b0-e79d-4aeb-92d0-6e3267ba5ae1{fill:#3185bf;}.ff4a1a64-bee4-4c25-8f12-2452b8160028{fill:#ce465f;}</style></defs><title>PartnerLogos-Vector</title><path id="a7e4b4dd-2e5a-4e76-9055-08077d620cd9" data-name="colorgroup3" class="b160be89-e625-4efe-a890-8717568e6ef0" d="M124.44,185.47h0a50.26,50.26,0,0,1,.28-71.18l0,0A19.78,19.78,0,0,0,96.83,86.18a89.89,89.89,0,0,0-.47,127.16,19.78,19.78,0,0,0,28.09-27.86Z"/><path id="baff6e7a-577a-4d50-99eb-b21aa0e895db" data-name="colorgroup3" class="a7c8664a-2313-4160-bb4d-54c5ce3b7bfb" d="M124.71,114.26l0,0a50.28,50.28,0,0,1,71.18.27l0,0A19.78,19.78,0,1,0,224,86.65a89.89,89.89,0,0,0-127.16-.47,19.78,19.78,0,0,0,27.86,28.09Z"/><path id="e4a73719-e669-460a-aeaa-42839e588636" data-name="colorgroup3" class="bd29b18c-aacb-4a01-ad86-d72307986bf1" d="M195.66,185.74l0,0a50.28,50.28,0,0,1-71.18-.27l0,0a19.78,19.78,0,1,0-28.07,27.88,89.89,89.89,0,0,0,127.16.47,19.78,19.78,0,0,0-27.86-28.09Z"/><path id="a118643f-8953-4446-b137-30f68bd93b5f" data-name="colorgroup1" class="a81a12b0-e79d-4aeb-92d0-6e3267ba5ae1" d="M124.71,114.25a19.78,19.78,0,1,1,.1-28,19.78,19.78,0,0,1-.1,28"/><path id="a794a8fc-c46f-4877-b5aa-53b9c7f2d0e3" data-name="colorgroup1" class="ff4a1a64-bee4-4c25-8f12-2452b8160028" d="M124.34,213.45a19.78,19.78,0,1,1,.11-28,19.78,19.78,0,0,1-.11,28"/></svg>